<?xml version="1.0" encoding="iso-8859-1"?>
<!-- Generator: Adobe Illustrator 19.0.0, SVG Export Plug-In . SVG Version: 6.00 Build 0)  -->
<svg version="1.1" id="Layer_1" xmlns="http://www.w3.org/2000/svg" xmlns:xlink="http://www.w3.org/1999/xlink" x="0px" y="0px"
	 viewBox="0 0 496.158 496.158" style="enable-background:new 0 0 496.158 496.158;" xml:space="preserve">
<path style="fill:#337180;" d="M248.082,0.003C111.07,0.003,0,111.063,0,248.085c0,137.001,111.07,248.07,248.082,248.07
	c137.006,0,248.076-111.069,248.076-248.07C496.158,111.062,385.088,0.003,248.082,0.003z"/>
<path id="SVGCleanerId_0" style="fill:#BAD6D8;" d="M300.586,171.454H195.572c-7.027,0-12.727,5.698-12.727,12.728v246.91
	c0,7.028,35.983,12.222,64.288,12.222c28.303,0,66.178-5.194,66.178-12.222v-246.91
	C313.311,177.152,307.613,171.454,300.586,171.454z"/>
<path style="fill:#FFFFFF;" d="M189.235,247.079v176.712c0,6.34,32.459,11.025,57.991,11.025c25.53,0,59.695-4.685,59.695-11.025
	V247.079H189.235z"/>
<g style="opacity:0.4;">
	<g>
		<path id="SVGCleanerId_0_1_" style="fill:#BAD6D8;" d="M300.586,171.454H195.572c-7.027,0-12.727,5.698-12.727,12.728v246.91
			c0,7.028,35.983,12.222,64.288,12.222c28.303,0,66.178-5.194,66.178-12.222v-246.91
			C313.311,177.152,307.613,171.454,300.586,171.454z"/>
	</g>
</g>
<g style="opacity:0.5;">
	<path style="fill:#D3E5E5;" d="M195.572,171.454c-7.027,0-12.727,5.698-12.727,12.728v246.91c0,7.028,35.983,12.222,64.288,12.222
		v-271.86H195.572z"/>
</g>
<g>
	<path style="fill:#D8DBBA;" d="M268.123,94.956c-2.433-28.986-38.571-28.099-40.677,1.245
		c-1.823,25.427-31.172,26.607-31.172,66.635c0,0,4.525,6.291,10.108,6.291h83.396c5.582,0,10.105-6.291,10.105-6.291
		C299.884,123.094,270.298,120.848,268.123,94.956z"/>
	<path style="fill:#D8DBBA;" d="M247.134,58.248c-13.794,0-24.976,8.374-24.976,23.788c0,8.881,11.182,27.911,24.976,27.911
		c13.792,0,24.974-18.436,24.974-27.911C272.107,66.621,260.926,58.248,247.134,58.248z"/>
</g>
<path style="fill:#F4F4EF;" d="M258.412,65.959c-3.223-1.84-7.103-2.789-11.278-2.789c-11.167,0-20.218,6.779-20.218,19.257
	c0,2.422,1.027,5.777,2.815,9.162C233.255,98.25,263.805,69.039,258.412,65.959z"/>
<path style="fill:#FCFCFC;" d="M301.994,158.07c-6.613-1.166-29.806-4.422-54.219-4.422c-24.673,0-47.925,3.256-53.611,4.422
	c-8.552,1.752-11.398,23.923-11.398,23.923s32.989-5.146,65.313-5.147c32.324,0,65.313,5.147,65.313,5.147
	S312.426,159.908,301.994,158.07z"/>
<g>
	<path style="fill:#8DB4B5;" d="M247.294,196.789c-2.132,0-3.86,1.828-3.86,4.082v207.664c0,2.255,1.729,4.083,3.86,4.083
		c2.131,0,3.858-1.827,3.858-4.083V200.871C251.152,198.617,249.426,196.789,247.294,196.789z"/>
	<path style="fill:#8DB4B5;" d="M270.693,409.558h-46.801c-2.133-0.001-3.862,0.918-3.859,2.052c0,1.135,1.729,2.054,3.859,2.054
		h46.801c2.131,0,3.86-0.919,3.86-2.053C274.554,410.477,272.824,409.558,270.693,409.558z"/>
	<path style="fill:#8DB4B5;" d="M270.693,377.739h-46.801c-2.133-0.001-3.862,0.919-3.859,2.052c0,1.135,1.729,2.054,3.859,2.054
		h46.801c2.131-0.002,3.86-0.92,3.86-2.054C274.554,378.659,272.824,377.739,270.693,377.739z"/>
	<path style="fill:#8DB4B5;" d="M270.693,345.919h-46.801c-2.133-0.001-3.862,0.918-3.859,2.053c0,1.134,1.729,2.054,3.859,2.054
		h46.801c2.131-0.001,3.86-0.919,3.86-2.054C274.554,346.838,272.824,345.919,270.693,345.919z"/>
	<path style="fill:#8DB4B5;" d="M270.693,314.1h-46.801c-2.133-0.001-3.862,0.919-3.859,2.053c0,1.135,1.729,2.053,3.859,2.053
		h46.801c2.131,0,3.86-0.92,3.86-2.053S272.824,314.1,270.693,314.1z"/>
	<path style="fill:#8DB4B5;" d="M270.693,282.208h-46.801c-2.133-0.001-3.862,0.918-3.859,2.052c0,1.136,1.729,2.054,3.859,2.054
		h46.801c2.131,0,3.86-0.919,3.86-2.054C274.554,283.128,272.824,282.208,270.693,282.208z"/>
	<path style="fill:#8DB4B5;" d="M270.693,250.388h-46.801c-2.133-0.001-3.862,0.919-3.859,2.054c0,1.133,1.729,2.053,3.859,2.053
		h46.801c2.131-0.001,3.86-0.919,3.86-2.053C274.554,251.308,272.824,250.388,270.693,250.388z"/>
	<path style="fill:#8DB4B5;" d="M270.693,218.568h-46.801c-2.133-0.001-3.862,0.919-3.859,2.053c0,1.134,1.729,2.053,3.859,2.053
		h46.801c2.131,0,3.86-0.92,3.86-2.053C274.554,219.489,272.824,218.568,270.693,218.568z"/>
</g>
<g>
</g>
<g>
</g>
<g>
</g>
<g>
</g>
<g>
</g>
<g>
</g>
<g>
</g>
<g>
</g>
<g>
</g>
<g>
</g>
<g>
</g>
<g>
</g>
<g>
</g>
<g>
</g>
<g>
</g>
</svg>
